# xmcd
#
# Track frame offsets:
#	150
#	16712
#	33187
#	46162
#	57125
#	75675
#	86975
#	101275
#	117525
#	131437
#	145950
#	159112
#	172562
#	190187
#
# Disc length: 2719
#
# Revision: 1
# Processed by: cddbd v1.5.1PL0 Copyright (c) Steve Scherf et al.
# Submitted via: CDex 1.51
# Normalized: r0:DSETVAR1,TDELIM( - )
#
DISCID=9f0a9d0e
DTITLE=Various Artist - Prince of Woodwind - Saxophone Love Songs
DYEAR=1900
DGENRE=Jazz
TTITLE0=Love Story - Francis Lai
TTITLE1=Unchained Melody - A North and Zareth
TTITLE2=Nuage - Django Reinharts
TTITLE3=Concierto D'Aranjuez - J Rodrigo
TTITLE4=Waiting for a girl like you - Mick Jones and Lou Gramm
TTITLE5=My Heart Beats Only for You - R Benatar T Kolenberg and S Stern
TTITLE6=Sleepy Shores - J Pearson
TTITLE7=More than I can bear - Mark Reilly and Daniel White
TTITLE8=Lover's Island - R Benatar T Kolenberg and S Stern
TTITLE9=Lara's Theme - Jaar
TTITLE10=Nostalgia - FWeyer and Roucher
TTITLE11=If I only had time - M Fugain and Fishman
TTITLE12=Les Vieux Maries - Jacques Revaux
TTITLE13=Don't Say Anything - R Benatar T Kolenberg and S Stern
EXTD=
EXTT0=
EXTT1=
EXTT2=
EXTT3=
EXTT4=
EXTT5=
EXTT6=
EXTT7=
EXTT8=
EXTT9=
EXTT10=
EXTT11=
EXTT12=
EXTT13=
PLAYORDER=
